HIERARCHY
ROOT Hips
{
  OFFSET 0.0000 0.0000 0.0000
  CHANNELS 6 Xposition Yposition Zposition Zrotation Xrotation Yrotation
  JOINT Chest
  {
    OFFSET -0.1728 10.2870 0.1254
    CHANNELS 3 Zrotation Xrotation Yrotation
    JOINT Chest2
    {
      OFFSET 0.3229 15.8173 -2.6440
      CHANNELS 3 Zrotation Xrotation Yrotation
      JOINT LeftCollar
      {
        OFFSET -0.0683 16.8828 0.2989
        CHANNELS 3 Zrotation Xrotation Yrotation
        JOINT LeftShoulder
        {
          OFFSET 16.0110 -3.0750 2.0528
          CHANNELS 3 Zrotation Xrotation Yrotation
          JOINT LeftElbow
          {
            OFFSET 2.6153 -25.4187 1.7231
            CHANNELS 3 Zrotation Xrotation Yrotation
            JOINT LeftWrist
            {
              OFFSET 2.3595 -22.4741 1.0488
              CHANNELS 3 Zrotation Xrotation Yrotation
              End Site
              {
                  OFFSET 1.4871 -13.9919 1.1523
              }
            }
          }
        }
      }
      JOINT RightCollar
      {
        OFFSET -0.0683 16.8828 0.2989
        CHANNELS 3 Zrotation Xrotation Yrotation
        JOINT RightShoulder
        {
          OFFSET -16.3743 -2.4390 2.0841
          CHANNELS 3 Zrotation Xrotation Yrotation
          JOINT RightElbow
          {
            OFFSET -2.6865 -25.0857 1.2959
            CHANNELS 3 Zrotation Xrotation Yrotation
            JOINT RightWrist
            {
              OFFSET -2.3810 -22.8348 1.0329
              CHANNELS 3 Zrotation Xrotation Yrotation
              End Site
              {
                  OFFSET -1.4652 -14.7234 1.0705
              }
            }
          }
        }
      }
      JOINT Neck
      {
        OFFSET -0.0683 16.8828 0.2989
        CHANNELS 3 Zrotation Xrotation Yrotation
        JOINT Head
        {
          OFFSET 0.1300 11.4121 4.7143
          CHANNELS 3 Zrotation Xrotation Yrotation
          End Site
          {
              OFFSET 0.0452 18.0438 0.3379
          }
        }
      }
    }
  }
  JOINT LeftHip
  {
    OFFSET 9.3186 -0.0408 3.5432
    CHANNELS 3 Zrotation Xrotation Yrotation
    JOINT LeftKnee
    {
      OFFSET -0.5435 -48.8357 0.3144
      CHANNELS 3 Zrotation Xrotation Yrotation
      JOINT LeftAnkle
      {
        OFFSET 0.2027 -38.4920 -4.2946
        CHANNELS 3 Zrotation Xrotation Yrotation
        End Site
        {
            OFFSET 1.1879 -7.4484 17.8063
        }
      }
    }
  }
  JOINT RightHip
  {
    OFFSET -10.0712 -0.0749 3.1483
    CHANNELS 3 Zrotation Xrotation Yrotation
    JOINT RightKnee
    {
      OFFSET 0.3157 -48.5179 0.1055
      CHANNELS 3 Zrotation Xrotation Yrotation
      JOINT RightAnkle
      {
        OFFSET -1.1248 -38.4399 -3.4305
        CHANNELS 3 Zrotation Xrotation Yrotation
        End Site
        {
            OFFSET -1.3336 -7.3741 17.3830
        }
      }
    }
  }
}
MOTION
Frames:	30
Frame Time:	0.041667
110.2769 95.6610 80.4462 -11.32 -0.42 13.78 -11.43 12.76 -2.12 -11.39 12.71 -2.11 -0.18 -0.70 0.26 65.40 -25.54 -22.27 8.42 -42.71 -3.40 9.91 12.71 -4.32 -0.01 -0.80 0.01 -19.58 -0.63 77.88 -12.38 -43.20 3.84 2.68 9.97 -90.17 -3.69 -4.08 5.24 -4.13 3.22 5.29 13.81 -3.24 -10.67 -0.25 24.78 1.33 -0.05 -17.00 -2.22 3.91 -14.82 -16.58 0.12 -2.34 0.08 0.10 3.55 2.06 
109.1457 95.2767 84.5190 -10.71 -2.14 13.86 -11.00 13.10 -1.90 -10.96 13.06 -1.89 -0.18 -0.70 0.26 62.75 -23.42 -24.91 8.48 -41.81 -3.34 10.09 12.57 -4.13 -0.01 -0.80 0.01 -20.15 -0.58 77.20 -12.36 -43.51 3.85 2.57 9.50 -89.12 -3.96 -3.98 5.48 -4.43 3.31 5.53 14.94 -0.03 -10.85 -0.25 26.30 1.36 0.02 -15.80 -2.72 4.65 -13.43 -14.56 0.12 1.21 -0.02 0.09 5.87 2.81 
107.9820 94.9907 88.6374 -10.37 -3.38 13.93 -10.31 13.04 -1.68 -10.27 13.00 -1.68 -0.18 -0.70 0.26 59.23 -19.88 -28.40 8.61 -39.62 -3.19 10.09 12.38 -2.84 -0.01 -0.80 0.01 -21.10 -0.28 76.81 -12.35 -43.68 3.86 2.69 9.02 -88.97 -4.17 -3.60 5.75 -4.68 3.69 5.80 16.18 1.29 -10.93 -0.32 30.28 1.52 0.10 -12.77 -3.89 5.45 -12.35 -12.28 0.13 5.74 -0.15 0.09 6.83 2.53 
106.8560 94.8212 92.7086 -10.21 -3.86 14.09 -9.53 12.43 -1.48 -9.49 12.38 -1.48 -0.18 -0.70 0.26 54.98 -15.13 -31.97 8.78 -36.39 -2.98 9.45 12.21 -1.52 -0.01 -0.80 0.01 -22.36 0.72 76.27 -12.30 -44.38 3.89 2.84 9.12 -89.30 -4.32 -2.83 5.90 -4.84 4.45 5.96 17.15 -0.14 -11.10 -0.52 37.32 1.90 0.14 -6.84 -5.51 6.25 -11.79 -10.71 0.16 10.41 -0.28 0.10 5.29 1.86 
105.8093 94.7354 96.6494 -10.14 -3.58 14.31 -8.84 11.32 -1.14 -8.81 11.28 -1.13 -0.18 -0.70 0.26 50.51 -9.79 -35.72 8.96 -32.26 -2.74 7.62 11.78 0.29 -0.01 -0.80 0.01 -23.75 2.73 75.13 -12.17 -46.06 3.96 2.90 10.09 -89.56 -4.33 -1.75 5.70 -4.84 5.54 5.78 17.62 -4.19 -11.48 -0.94 46.36 2.55 0.19 1.67 -7.15 6.96 -11.65 -10.28 0.18 14.48 -0.40 0.08 2.14 1.72 
104.8764 94.6960 100.3974 -10.22 -2.81 14.53 -8.26 10.02 -0.42 -8.23 9.98 -0.41 -0.18 -0.70 0.26 46.47 -4.41 -40.00 9.14 -27.68 -2.51 4.59 10.79 4.32 -0.01 -0.80 0.01 -24.95 5.54 73.39 -12.00 -48.27 4.07 2.80 11.51 -89.51 -4.14 -0.51 4.97 -4.55 6.78 5.05 17.62 -9.90 -12.01 -1.64 55.31 3.46 0.25 9.43 -8.50 7.63 -11.54 -11.00 0.21 17.38 -0.48 0.06 -1.03 2.44 
104.1169 94.6957 103.8903 -10.47 -1.77 14.65 -7.80 8.80 0.57 -7.77 8.76 0.59 -0.18 -0.70 0.26 43.10 1.11 -43.29 9.27 -23.64 -2.32 0.93 9.55 10.00 -0.01 -0.80 0.01 -25.68 8.48 71.40 -11.85 -50.03 4.17 2.55 12.69 -88.98 -3.76 0.50 3.94 -4.06 7.80 4.02 17.22 -16.21 -12.34 -2.55 62.12 4.53 0.28 12.48 -9.14 8.22 -11.30 -12.63 0.23 19.05 -0.53 0.06 -3.27 4.09 
103.6015 94.7400 107.0862 -10.82 -0.57 14.64 -7.45 7.85 1.73 -7.41 7.81 1.74 -0.18 -0.70 0.26 39.87 6.67 -43.54 9.36 -20.68 -2.20 -3.05 8.92 13.83 -0.01 -0.80 0.01 -25.89 10.91 69.32 -11.77 -50.84 4.22 2.05 13.36 -87.91 -3.36 1.04 2.77 -3.51 8.35 2.84 16.43 -22.44 -12.26 -3.19 65.45 5.25 0.24 10.32 -8.59 8.61 -10.88 -15.01 0.24 19.68 -0.55 0.07 -4.37 6.64 
103.3301 94.8196 110.0723 -11.15 0.62 14.63 -7.17 7.29 2.87 -7.13 7.26 2.89 -0.18 -0.70 0.26 36.35 11.71 -40.42 9.42 -18.59 -2.11 -7.50 9.26 14.10 -0.01 -0.80 0.01 -25.81 12.64 67.40 -11.76 -50.97 4.23 1.39 13.69 -86.92 -3.11 1.13 1.56 -3.11 8.45 1.61 15.27 -28.07 -12.01 -3.01 64.60 5.05 0.23 6.16 -7.04 8.77 -10.09 -18.02 0.23 19.37 -0.54 0.07 -4.71 9.87 
103.2485 94.8960 113.0454 -11.37 1.60 14.89 -6.98 7.09 3.88 -6.94 7.05 3.89 -0.18 -0.70 0.26 33.05 15.79 -36.49 9.46 -16.85 -2.04 -12.28 10.08 12.56 -0.01 -0.80 0.01 -25.80 13.79 66.05 -11.76 -51.01 4.23 0.82 14.00 -86.79 -3.08 1.01 0.37 -2.93 8.32 0.42 13.78 -32.50 -12.15 -2.14 59.41 4.06 0.25 2.77 -5.40 8.82 -8.68 -21.42 0.22 18.30 -0.51 0.05 -4.91 13.29 
103.3631 94.9082 116.1443 -11.56 2.27 15.52 -6.83 7.11 4.63 -6.80 7.08 4.65 -0.18 -0.70 0.26 30.44 19.17 -33.34 9.49 -15.40 -1.99 -16.64 10.85 11.11 -0.01 -0.80 0.01 -26.05 14.54 65.56 -11.74 -51.16 4.24 0.55 14.43 -87.57 -3.16 0.84 -0.71 -2.88 8.16 -0.68 12.14 -35.25 -12.97 -1.17 49.94 2.86 0.26 0.86 -4.29 8.93 -6.77 -24.60 0.21 16.87 -0.47 0.02 -5.28 16.15 
103.7360 94.8071 119.3902 -11.67 2.79 16.32 -6.77 7.19 5.06 -6.74 7.16 5.08 -0.18 -0.70 0.26 28.22 22.09 -30.27 9.52 -14.20 -1.94 -19.65 11.40 9.63 -0.01 -0.80 0.01 -26.52 14.97 65.91 -11.72 -51.39 4.26 0.62 14.90 -88.43 -3.29 0.67 -1.61 -2.90 7.98 -1.58 10.44 -36.27 -14.32 -0.50 38.09 1.89 0.25 0.78 -3.71 9.01 -4.86 -26.75 0.20 15.94 -0.44 0.02 -5.92 17.75 
104.3843 94.5885 122.7775 -11.66 3.19 17.06 -6.87 7.32 5.19 -6.84 7.28 5.21 -0.18 -0.70 0.26 26.22 24.34 -26.93 9.55 -13.06 -1.90 -21.24 11.82 7.60 -0.01 -0.80 0.01 -26.94 15.08 66.63 -11.71 -51.52 4.27 0.87 15.09 -88.68 -3.40 0.43 -2.27 -2.93 7.74 -2.25 8.65 -36.09 -16.18 -0.15 26.53 1.21 0.25 2.75 -3.24 8.93 -3.21 -27.40 0.20 16.18 -0.45 0.03 -6.65 17.83 
105.2776 94.2948 126.3125 -11.59 3.36 17.71 -7.12 7.57 5.06 -7.08 7.54 5.07 -0.18 -0.70 0.26 24.80 25.60 -24.28 9.56 -12.13 -1.87 -22.20 12.16 5.78 -0.01 -0.80 0.01 -27.01 14.84 67.33 -11.74 -51.23 4.25 1.04 14.68 -88.38 -3.45 0.05 -2.70 -2.93 7.36 -2.68 6.65 -35.48 -19.11 -0.03 19.93 0.88 0.26 5.45 -2.43 8.67 -1.82 -26.83 0.21 17.73 -0.49 0.03 -7.12 16.89 
106.3643 94.0189 129.9872 -11.57 3.18 18.37 -7.43 8.04 4.72 -7.39 8.00 4.73 -0.18 -0.70 0.26 24.37 25.64 -23.64 9.57 -11.70 -1.85 -23.05 12.37 4.87 -0.01 -0.80 0.01 -26.66 14.31 67.86 -11.81 -50.46 4.20 0.93 13.65 -87.99 -3.44 -0.46 -2.94 -2.89 6.84 -2.92 4.31 -34.87 -23.65 -0.03 20.35 0.90 0.23 6.29 -0.84 8.26 -0.61 -25.81 0.24 20.50 -0.58 -0.00 -6.83 15.84 
107.5545 93.8908 133.7550 -11.77 2.68 19.19 -7.68 8.69 4.20 -7.64 8.66 4.21 -0.18 -0.70 0.26 25.16 24.48 -25.76 9.56 -12.32 -1.87 -23.20 12.33 4.08 -0.01 -0.80 0.01 -26.12 13.55 68.44 -11.92 -49.22 4.12 0.49 12.26 -88.03 -3.38 -1.00 -3.06 -2.81 6.30 -3.04 2.00 -33.98 -29.16 -0.12 25.13 1.13 0.19 4.15 1.64 7.70 0.27 -24.99 0.29 24.25 -0.70 -0.04 -4.94 15.65 
108.7455 93.9957 137.5006 -12.26 1.93 20.01 -7.76 9.48 3.57 -7.73 9.44 3.58 -0.18 -0.70 0.26 26.99 22.21 -29.95 9.52 -14.19 -1.94 -21.14 11.79 3.25 -0.01 -0.80 0.01 -25.78 12.57 69.16 -12.03 -47.92 4.05 -0.12 10.92 -88.64 -3.32 -1.48 -3.08 -2.75 5.82 -3.05 0.55 -32.29 -33.75 -0.23 29.80 1.38 0.21 0.57 4.33 6.94 0.62 -24.34 0.37 28.69 -0.85 0.04 -0.52 17.13 
109.8569 94.3115 141.0764 -12.95 0.97 20.49 -7.72 10.38 2.91 -7.69 10.34 2.93 -0.18 -0.70 0.26 29.31 19.08 -33.98 9.45 -17.22 -2.06 -15.71 10.52 4.41 -0.01 -0.80 0.01 -25.89 11.45 69.71 -12.09 -47.14 4.01 -0.70 9.99 -89.41 -3.30 -1.90 -2.93 -2.75 5.40 -2.90 0.41 -29.84 -36.12 -0.30 32.38 1.53 0.24 -2.83 6.49 5.92 0.30 -23.47 0.47 33.51 -1.04 0.19 6.69 20.36 
110.8142 94.7351 144.3939 -13.59 -0.01 20.29 -7.75 11.25 2.37 -7.71 11.21 2.38 -0.18 -0.70 0.26 31.74 15.42 -35.52 9.35 -21.06 -2.21 -7.54 9.20 8.53 -0.01 -0.80 0.01 -26.28 10.38 69.75 -12.09 -47.16 4.02 -1.20 9.51 -89.59 -3.21 -2.15 -2.58 -2.70 5.16 -2.55 1.36 -27.01 -36.29 -0.33 33.31 1.59 0.25 -5.48 7.76 4.63 -0.74 -22.23 0.59 38.33 -1.24 0.05 14.66 22.99 
111.5502 95.1628 147.4737 -14.01 -0.86 19.44 -8.08 11.95 2.04 -8.05 11.91 2.05 -0.18 -0.70 0.26 34.24 11.50 -33.82 9.22 -25.37 -2.40 0.76 9.21 12.27 -0.01 -0.80 0.01 -26.52 9.58 69.20 -12.04 -47.78 4.05 -1.73 9.33 -88.52 -2.86 -2.09 -2.04 -2.42 5.22 -2.01 2.83 -24.11 -34.97 -0.33 33.43 1.59 0.24 -7.48 8.08 3.26 -2.34 -21.20 0.73 42.57 -1.45 -0.04 19.29 20.49 
112.0448 95.5617 150.3936 -14.20 -1.54 18.25 -8.72 12.40 1.78 -8.69 12.36 1.79 -0.18 -0.70 0.26 36.91 7.36 -30.48 9.07 -29.71 -2.61 6.92 10.56 12.09 -0.01 -0.80 0.01 -26.36 9.01 68.40 -11.97 -48.61 4.09 -2.45 9.29 -86.44 -2.19 -1.67 -1.37 -1.83 5.64 -1.34 4.44 -21.26 -32.86 -0.32 33.11 1.57 0.22 -8.92 7.62 2.05 -4.19 -20.94 0.83 45.13 -1.59 0.36 18.31 11.55 
112.3177 95.9529 153.2095 -14.38 -2.20 17.03 -9.45 12.67 1.47 -9.42 12.63 1.47 -0.18 -0.70 0.26 39.83 3.07 -27.61 8.92 -33.36 -2.80 10.73 12.36 8.90 -0.01 -0.80 0.01 -25.85 8.49 67.69 -11.90 -49.44 4.14 -3.56 9.59 -83.68 -1.32 -1.02 -0.66 -1.05 6.29 -0.63 6.19 -18.45 -30.29 -0.30 32.43 1.53 0.21 -9.86 6.66 1.27 -5.90 -21.39 0.81 44.73 -1.56 0.38 13.57 1.52 
112.3864 96.3449 155.9538 -14.57 -2.87 15.87 -10.17 12.80 0.98 -10.14 12.75 0.99 -0.18 -0.70 0.26 42.92 -1.31 -26.28 8.79 -36.07 -2.96 12.56 13.98 5.32 -0.01 -0.80 0.01 -25.20 7.80 67.50 -11.83 -50.26 4.19 -5.09 10.30 -80.86 -0.41 -0.37 0.06 -0.22 6.94 0.09 8.05 -15.64 -27.42 -0.27 31.40 1.47 0.20 -10.45 5.40 0.98 -7.23 -22.01 0.66 40.71 -1.36 0.03 9.07 -3.31 
112.2596 96.7039 158.6762 -14.66 -3.46 14.86 -10.87 12.83 0.41 -10.84 12.78 0.41 -0.18 -0.70 0.26 45.85 -5.87 -25.93 8.71 -37.77 -3.06 12.66 15.02 2.40 -0.01 -0.80 0.01 -24.52 7.03 68.03 -11.75 -51.09 4.24 -6.90 11.40 -78.49 0.44 0.19 0.70 0.54 7.50 0.73 9.81 -12.79 -24.57 -0.24 30.06 1.40 0.19 -10.87 4.03 1.07 -8.13 -22.38 0.47 33.58 -1.04 0.03 7.38 -2.05 
111.9475 96.9972 161.4481 -14.55 -3.99 14.04 -11.54 12.79 -0.10 -11.51 12.75 -0.09 -0.18 -0.70 0.26 48.19 -10.74 -25.78 8.66 -38.74 -3.13 11.53 15.45 -0.56 -0.01 -0.80 0.01 -23.94 6.34 69.13 -11.67 -51.94 4.29 -8.49 12.62 -76.83 1.02 0.55 1.18 1.07 7.86 1.21 11.30 -9.80 -22.24 -0.19 28.40 1.31 0.19 -11.21 2.88 1.43 -8.62 -22.40 0.30 24.83 -0.72 0.13 8.64 1.17 
111.4557 97.2333 164.3327 -14.33 -4.61 13.35 -12.06 12.77 -0.42 -12.03 12.73 -0.42 -0.18 -0.70 0.26 49.64 -15.72 -25.47 8.60 -39.71 -3.19 10.03 15.59 -4.35 -0.01 -0.80 0.01 -23.60 5.72 70.46 -11.60 -52.71 4.35 -9.46 13.82 -75.49 1.14 0.71 1.56 1.15 8.02 1.59 12.60 -6.47 -20.67 -0.15 26.44 1.20 0.18 -11.36 2.25 2.09 -8.69 -21.90 0.20 16.13 -0.44 0.11 12.01 2.88 
110.7930 97.4272 167.3614 -14.15 -5.50 12.74 -12.27 12.82 -0.50 -12.23 12.78 -0.50 -0.18 -0.70 0.26 50.22 -20.37 -25.20 8.52 -41.11 -3.29 9.00 15.68 -8.68 -0.01 -0.80 0.01 -23.54 5.18 71.56 -11.55 -53.20 4.38 -9.82 14.93 -74.15 0.77 0.73 1.88 0.74 8.04 1.91 13.93 -2.78 -19.81 -0.10 24.36 1.09 0.18 -11.25 2.12 3.04 -8.25 -20.73 0.15 8.62 -0.23 0.15 16.66 3.29 
109.9807 97.5521 170.5333 -13.91 -6.54 12.19 -12.21 12.85 -0.42 -12.18 12.81 -0.42 -0.18 -0.70 0.26 50.24 -24.06 -25.16 8.40 -43.09 -3.43 8.55 15.56 -11.94 -0.01 -0.80 0.01 -23.67 4.71 72.33 -11.53 -53.41 4.40 -9.87 15.78 -73.06 0.12 0.70 2.19 0.05 8.01 2.23 15.20 1.02 -19.54 -0.07 22.42 1.00 0.19 -10.83 2.21 3.99 -7.46 -18.96 0.13 3.14 -0.07 0.27 21.68 4.26 
109.0202 97.5628 173.8470 -13.47 -7.52 11.78 -12.08 12.75 -0.32 -12.04 12.71 -0.32 -0.18 -0.70 0.26 50.19 -26.39 -25.28 8.27 -45.01 -3.59 8.23 15.00 -12.84 -0.01 -0.80 0.01 -23.92 4.35 72.84 -11.51 -53.60 4.41 -9.80 16.16 -72.38 -0.47 0.62 2.50 -0.58 7.94 2.55 16.25 4.59 -19.65 -0.04 20.98 0.93 0.20 -10.11 2.29 4.70 -6.51 -16.92 0.12 0.27 0.00 0.30 25.46 5.92 
107.8843 97.4484 177.3132 -12.89 -8.40 11.58 -11.93 12.58 -0.25 -11.90 12.54 -0.25 -0.18 -0.70 0.26 50.48 -27.33 -25.44 8.19 -46.00 -3.67 7.71 14.09 -11.65 -0.01 -0.80 0.01 -24.28 4.15 73.20 -11.47 -54.00 4.44 -9.58 16.13 -71.86 -0.75 0.39 2.74 -0.90 7.70 2.79 17.21 7.66 -19.84 -0.03 20.32 0.90 0.21 -9.09 2.04 5.28 -5.39 -15.08 0.12 0.21 0.01 0.27 26.10 7.03 
